# xmcd CD database file
# Copyright (C) 1997 Ti Kan
# 
# Track frame offsets:
#     182
#     16930
#     37217
#     56577
#     69385
#     85547
#     106435
#     129090
#     142202
#     178612
#     199905
#     210330
#     222610
#     239170
#     250525
#     273995
#     289055
#     302630
#     311535
# 
# Disc length: 4417 seconds
# 
# Revision: 1
# Processed by: cddbd v1.4b41PL1 Copyright (c) Steve Scherf et al.
# Submitted via: DiscPlay 4.0.3
# 
DISCID=1b113f13
DTITLE=Reverend Gary Davis - Reverend Gary Davis
DYEAR=1900
DGENRE=
TTITLE0=I'm Going To Sit Down On The Banks Of The River
TTITLE1=Twelve Gates to the City
TTITLE2=(I Heard The) Angels Singing
TTITLE3=Twelve Sticks
TTITLE4=It's A Long Way To Tipperary
TTITLE5=I'll Meet You At The Station Whe The Train Comes Along
TTITLE6=Come Down and Meet Me Sometime
TTITLE7=Buck Dance
TTITLE8=Soldier's Drill
TTITLE9=Cincinnati Flow Rag
TTITLE10=West Coast Blues
TTITLE11=Buck Rag
TTITLE12=St. Louis Tickle
TTITLE13=Two Step Candyman
TTITLE14=Walkin' Dog Blues
TTITLE15=Italian Rag
TTITLE16=C-Rag
TTITLE17=Waltz Time Candyman
TTITLE18=Make Believe Stunt
EXTD=
EXTT0=
EXTT1=
EXTT2=
EXTT3=
EXTT4=
EXTT5=
EXTT6=
EXTT7=
EXTT8=
EXTT9=
EXTT10=
EXTT11=
EXTT12=
EXTT13=
EXTT14=
EXTT15=
EXTT16=
EXTT17=
EXTT18=
PLAYORDER=
